<svg viewBox="96 121 326 268" xmlns="http://www.w3.org/2000/svg">
  <defs>
    <mask id="rectCutout">
      <rect width="512" height="512" fill="white" />
      <rect x="87" y="230" width="339" height="61" fill="black" />
    </mask>
  </defs>

  <path d="M338.349 131.2C337.416 139.367 336.716 147.3 336.249 155C336.016 162.7 335.899 168.533 335.899 172.5C335.899 176.7 336.016 180.783 336.249 184.75C336.483 188.483 336.716 191.633 336.949 194.2H328.899C327.499 180.433 325.516 169.583 322.949 161.65C320.383 153.483 315.949 147.767 309.649 144.5C303.583 141 294.366 139.25 281.999 139.25H252.949C245.016 139.25 238.949 139.95 234.749 141.35C230.783 142.517 228.099 145.2 226.699 149.4C225.299 153.367 224.599 159.667 224.599 168.3V341.9C224.599 350.3 225.299 356.6 226.699 360.8C228.099 365 230.783 367.8 234.749 369.2C238.949 370.367 245.016 370.95 252.949 370.95H278.499C293.199 370.95 304.283 368.967 311.749 365C319.449 361.033 324.933 354.617 328.199 345.75C331.699 336.65 334.266 324.4 335.899 309H343.949C343.249 315.3 342.899 323.7 342.899 334.2C342.899 338.633 343.016 345.05 343.249 353.45C343.716 361.617 344.416 370.133 345.349 379C333.449 378.533 320.033 378.3 305.099 378.3C290.166 378.067 276.866 377.95 265.199 377.95C260.066 377.95 253.416 377.95 245.249 377.95C237.316 377.95 228.683 378.067 219.349 378.3C210.016 378.3 200.566 378.417 190.999 378.65C181.433 378.65 172.333 378.767 163.699 379V372C171.633 371.533 177.583 370.6 181.549 369.2C185.749 367.8 188.549 365 189.949 360.8C191.349 356.6 192.049 350.3 192.049 341.9V168.3C192.049 159.667 191.349 153.367 189.949 149.4C188.549 145.2 185.749 142.4 181.549 141C177.583 139.367 171.633 138.433 163.699 138.2V131.2C172.333 131.433 181.433 131.667 190.999 131.9C200.566 131.9 210.016 132.017 219.349 132.25C228.683 132.25 237.316 132.25 245.249 132.25C253.416 132.25 260.066 132.25 265.199 132.25C275.933 132.25 288.066 132.25 301.599 132.25C315.366 132.017 327.616 131.667 338.349 131.2ZM278.149 250.9C278.149 250.9 278.149 252.067 278.149 254.4C278.149 256.733 278.149 257.9 278.149 257.9H214.099C214.099 257.9 214.099 256.733 214.099 254.4C214.099 252.067 214.099 250.9 214.099 250.9H278.149ZM288.299 204.7C287.366 218 286.899 228.15 286.899 235.15C287.133 242.15 287.249 248.567 287.249 254.4C287.249 260.233 287.366 266.65 287.599 273.65C287.833 280.65 288.416 290.8 289.349 304.1H281.299C280.366 296.633 279.199 289.4 277.799 282.4C276.633 275.167 273.833 269.333 269.399 264.9C265.199 260.233 257.966 257.9 247.699 257.9V250.9C255.399 250.9 261.233 249.383 265.199 246.35C269.399 243.083 272.433 239 274.299 234.1C276.166 229.2 277.449 224.183 278.149 219.05C278.849 213.683 279.549 208.9 280.249 204.7H288.299Z" fill="white" mask="url(#rectCutout)" />
  <path d="M105.99 269.717V245.217H122.79V247.457H108.58V267.477H123.315V269.717H105.99ZM108.3 258.377V256.172H121.25V258.377H108.3ZM135.493 263.627L135.388 260.477L150.228 245.217H153.203L142.388 256.557L140.918 258.132L135.493 263.627ZM133.253 269.717V245.217H135.843V269.717H133.253ZM150.858 269.717L140.288 257.537L142.038 255.647L153.938 269.717H150.858ZM171.329 269.927C169.485 269.927 167.77 269.624 166.184 269.017C164.62 268.387 163.255 267.512 162.089 266.392C160.945 265.249 160.047 263.931 159.394 262.437C158.764 260.921 158.449 259.264 158.449 257.467C158.449 255.671 158.764 254.026 159.394 252.532C160.047 251.016 160.945 249.697 162.089 248.577C163.255 247.434 164.62 246.559 166.184 245.952C167.747 245.322 169.462 245.007 171.329 245.007C173.172 245.007 174.875 245.322 176.439 245.952C178.002 246.559 179.355 247.422 180.499 248.542C181.665 249.662 182.564 250.981 183.194 252.497C183.847 254.014 184.174 255.671 184.174 257.467C184.174 259.264 183.847 260.921 183.194 262.437C182.564 263.954 181.665 265.272 180.499 266.392C179.355 267.512 178.002 268.387 176.439 269.017C174.875 269.624 173.172 269.927 171.329 269.927ZM171.329 267.617C172.799 267.617 174.152 267.372 175.389 266.882C176.649 266.369 177.734 265.657 178.644 264.747C179.577 263.814 180.3 262.741 180.814 261.527C181.327 260.291 181.584 258.937 181.584 257.467C181.584 255.997 181.327 254.656 180.814 253.442C180.3 252.206 179.577 251.132 178.644 250.222C177.734 249.289 176.649 248.577 175.389 248.087C174.152 247.574 172.799 247.317 171.329 247.317C169.859 247.317 168.494 247.574 167.234 248.087C165.974 248.577 164.877 249.289 163.944 250.222C163.034 251.132 162.31 252.206 161.774 253.442C161.26 254.656 161.004 255.997 161.004 257.467C161.004 258.914 161.26 260.256 161.774 261.492C162.31 262.729 163.034 263.814 163.944 264.747C164.877 265.657 165.974 266.369 167.234 266.882C168.494 267.372 169.859 267.617 171.329 267.617ZM193.829 269.717V245.217H202.999C206.102 245.217 208.541 245.964 210.314 247.457C212.111 248.927 213.009 250.981 213.009 253.617C213.009 255.344 212.601 256.837 211.784 258.097C210.991 259.334 209.847 260.291 208.354 260.967C206.861 261.621 205.076 261.947 202.999 261.947H195.264L196.419 260.757V269.717H193.829ZM210.559 269.717L204.259 260.827H207.059L213.394 269.717H210.559ZM196.419 260.967L195.264 259.742H202.929C205.379 259.742 207.234 259.206 208.494 258.132C209.777 257.059 210.419 255.554 210.419 253.617C210.419 251.657 209.777 250.141 208.494 249.067C207.234 247.994 205.379 247.457 202.929 247.457H195.264L196.419 246.232V260.967ZM229.727 269.927C227.907 269.927 226.157 269.636 224.477 269.052C222.82 268.446 221.537 267.676 220.627 266.742L221.642 264.747C222.505 265.587 223.66 266.299 225.107 266.882C226.577 267.442 228.117 267.722 229.727 267.722C231.267 267.722 232.515 267.536 233.472 267.162C234.452 266.766 235.164 266.241 235.607 265.587C236.074 264.934 236.307 264.211 236.307 263.417C236.307 262.461 236.027 261.691 235.467 261.107C234.93 260.524 234.219 260.069 233.332 259.742C232.445 259.392 231.465 259.089 230.392 258.832C229.319 258.576 228.245 258.307 227.172 258.027C226.099 257.724 225.107 257.327 224.197 256.837C223.31 256.347 222.587 255.706 222.027 254.912C221.49 254.096 221.222 253.034 221.222 251.727C221.222 250.514 221.537 249.406 222.167 248.402C222.82 247.376 223.812 246.559 225.142 245.952C226.472 245.322 228.175 245.007 230.252 245.007C231.629 245.007 232.994 245.206 234.347 245.602C235.7 245.976 236.867 246.501 237.847 247.177L236.972 249.242C235.922 248.542 234.802 248.029 233.612 247.702C232.445 247.376 231.314 247.212 230.217 247.212C228.747 247.212 227.534 247.411 226.577 247.807C225.62 248.204 224.909 248.741 224.442 249.417C223.999 250.071 223.777 250.817 223.777 251.657C223.777 252.614 224.045 253.384 224.582 253.967C225.142 254.551 225.865 255.006 226.752 255.332C227.662 255.659 228.654 255.951 229.727 256.207C230.8 256.464 231.862 256.744 232.912 257.047C233.985 257.351 234.965 257.747 235.852 258.237C236.762 258.704 237.485 259.334 238.022 260.127C238.582 260.921 238.862 261.959 238.862 263.242C238.862 264.432 238.535 265.541 237.882 266.567C237.229 267.571 236.225 268.387 234.872 269.017C233.542 269.624 231.827 269.927 229.727 269.927ZM248.759 269.892C248.245 269.892 247.802 269.706 247.429 269.332C247.079 268.959 246.904 268.504 246.904 267.967C246.904 267.407 247.079 266.952 247.429 266.602C247.802 266.252 248.245 266.077 248.759 266.077C249.272 266.077 249.704 266.252 250.054 266.602C250.427 266.952 250.614 267.407 250.614 267.967C250.614 268.504 250.427 268.959 250.054 269.332C249.704 269.706 249.272 269.892 248.759 269.892ZM260.306 269.717V245.217H270.281C272.894 245.217 275.181 245.742 277.141 246.792C279.124 247.819 280.664 249.254 281.761 251.097C282.857 252.941 283.406 255.064 283.406 257.467C283.406 259.871 282.857 261.994 281.761 263.837C280.664 265.681 279.124 267.127 277.141 268.177C275.181 269.204 272.894 269.717 270.281 269.717H260.306ZM262.896 267.477H270.141C272.311 267.477 274.189 267.057 275.776 266.217C277.386 265.354 278.634 264.176 279.521 262.682C280.407 261.166 280.851 259.427 280.851 257.467C280.851 255.484 280.407 253.746 279.521 252.252C278.634 250.759 277.386 249.592 275.776 248.752C274.189 247.889 272.311 247.457 270.141 247.457H262.896V267.477ZM293.072 269.717V245.217H309.872V247.457H295.662V267.477H310.397V269.717H293.072ZM295.382 258.377V256.172H308.332V258.377H295.382ZM327.09 269.927C325.27 269.927 323.52 269.636 321.84 269.052C320.183 268.446 318.9 267.676 317.99 266.742L319.005 264.747C319.868 265.587 321.023 266.299 322.47 266.882C323.94 267.442 325.48 267.722 327.09 267.722C328.63 267.722 329.878 267.536 330.835 267.162C331.815 266.766 332.527 266.241 332.97 265.587C333.437 264.934 333.67 264.211 333.67 263.417C333.67 262.461 333.39 261.691 332.83 261.107C332.293 260.524 331.582 260.069 330.695 259.742C329.808 259.392 328.828 259.089 327.755 258.832C326.682 258.576 325.608 258.307 324.535 258.027C323.462 257.724 322.47 257.327 321.56 256.837C320.673 256.347 319.95 255.706 319.39 254.912C318.853 254.096 318.585 253.034 318.585 251.727C318.585 250.514 318.9 249.406 319.53 248.402C320.183 247.376 321.175 246.559 322.505 245.952C323.835 245.322 325.538 245.007 327.615 245.007C328.992 245.007 330.357 245.206 331.71 245.602C333.063 245.976 334.23 246.501 335.21 247.177L334.335 249.242C333.285 248.542 332.165 248.029 330.975 247.702C329.808 247.376 328.677 247.212 327.58 247.212C326.11 247.212 324.897 247.411 323.94 247.807C322.983 248.204 322.272 248.741 321.805 249.417C321.362 250.071 321.14 250.817 321.14 251.657C321.14 252.614 321.408 253.384 321.945 253.967C322.505 254.551 323.228 255.006 324.115 255.332C325.025 255.659 326.017 255.951 327.09 256.207C328.163 256.464 329.225 256.744 330.275 257.047C331.348 257.351 332.328 257.747 333.215 258.237C334.125 258.704 334.848 259.334 335.385 260.127C335.945 260.921 336.225 261.959 336.225 263.242C336.225 264.432 335.898 265.541 335.245 266.567C334.592 267.571 333.588 268.387 332.235 269.017C330.905 269.624 329.19 269.927 327.09 269.927ZM345.718 269.717V245.217H348.308V269.717H345.718ZM370.875 269.927C369.008 269.927 367.281 269.624 365.695 269.017C364.131 268.387 362.766 267.512 361.6 266.392C360.456 265.272 359.558 263.954 358.905 262.437C358.275 260.921 357.96 259.264 357.96 257.467C357.96 255.671 358.275 254.014 358.905 252.497C359.558 250.981 360.468 249.662 361.635 248.542C362.801 247.422 364.166 246.559 365.73 245.952C367.316 245.322 369.043 245.007 370.91 245.007C372.776 245.007 374.48 245.299 376.02 245.882C377.583 246.466 378.913 247.352 380.01 248.542L378.4 250.187C377.373 249.161 376.241 248.426 375.005 247.982C373.768 247.539 372.438 247.317 371.015 247.317C369.498 247.317 368.098 247.574 366.815 248.087C365.555 248.577 364.446 249.289 363.49 250.222C362.556 251.132 361.821 252.206 361.285 253.442C360.771 254.656 360.515 255.997 360.515 257.467C360.515 258.914 360.771 260.256 361.285 261.492C361.821 262.729 362.556 263.814 363.49 264.747C364.446 265.657 365.555 266.369 366.815 266.882C368.098 267.372 369.486 267.617 370.98 267.617C372.38 267.617 373.698 267.407 374.935 266.987C376.195 266.567 377.35 265.856 378.4 264.852L379.87 266.812C378.703 267.839 377.338 268.621 375.775 269.157C374.211 269.671 372.578 269.927 370.875 269.927ZM379.87 266.812L377.385 266.497V257.467H379.87V266.812ZM391.05 269.717V245.217H393.185L410.09 266.497H408.97V245.217H411.525V269.717H409.39L392.52 248.437H393.64V269.717H391.05Z" fill="white" />
</svg>